<mxfile host="app.diagrams.net" modified="2024-07-01T09:38:36.711Z" agent="Mozilla/5.0 (Windows NT 10.0; Win64; x64) AppleWebKit/537.36 (KHTML, like Gecko) Chrome/126.0.0.0 Safari/537.36" etag="9uqxB_oeHP6hUS3vJYDe" version="24.6.4" type="device">
  <diagram name="Page-1" id="SoeRze61QcrrxxBzHvPP">
    <mxGraphModel dx="1461" dy="696" grid="1" gridSize="10" guides="1" tooltips="1" connect="1" arrows="1" fold="1" page="1" pageScale="1" pageWidth="850" pageHeight="1100" math="0" shadow="0">
      <root>
        <mxCell id="0" />
        <mxCell id="1" parent="0" />
        <mxCell id="-vrsuvBG2RKhwMYN2WO8-1" value="Basic&lt;div&gt;Banking&lt;/div&gt;&lt;div&gt;Prototype&lt;/div&gt;" style="ellipse;whiteSpace=wrap;html=1;aspect=fixed;" vertex="1" parent="1">
          <mxGeometry x="360" y="260" width="220" height="220" as="geometry" />
        </mxCell>
        <mxCell id="-vrsuvBG2RKhwMYN2WO8-2" value="Customer" style="rounded=1;whiteSpace=wrap;html=1;" vertex="1" parent="1">
          <mxGeometry x="90" y="350" width="120" height="60" as="geometry" />
        </mxCell>
        <mxCell id="-vrsuvBG2RKhwMYN2WO8-3" value="Staff" style="rounded=1;whiteSpace=wrap;html=1;" vertex="1" parent="1">
          <mxGeometry x="710" y="350" width="120" height="60" as="geometry" />
        </mxCell>
        <mxCell id="-vrsuvBG2RKhwMYN2WO8-4" value="" style="endArrow=none;html=1;rounded=0;" edge="1" parent="1">
          <mxGeometry width="50" height="50" relative="1" as="geometry">
            <mxPoint x="140" y="350" as="sourcePoint" />
            <mxPoint x="140" y="280" as="targetPoint" />
          </mxGeometry>
        </mxCell>
        <mxCell id="-vrsuvBG2RKhwMYN2WO8-5" value="" style="endArrow=none;html=1;rounded=0;" edge="1" parent="1">
          <mxGeometry width="50" height="50" relative="1" as="geometry">
            <mxPoint x="140" y="280" as="sourcePoint" />
            <mxPoint x="190" y="280" as="targetPoint" />
          </mxGeometry>
        </mxCell>
        <mxCell id="-vrsuvBG2RKhwMYN2WO8-6" value="Customer info" style="text;html=1;align=center;verticalAlign=middle;resizable=0;points=[];autosize=1;strokeColor=none;fillColor=none;" vertex="1" parent="1">
          <mxGeometry x="220" y="250" width="100" height="30" as="geometry" />
        </mxCell>
        <mxCell id="-vrsuvBG2RKhwMYN2WO8-8" value="" style="endArrow=classic;html=1;rounded=0;entryX=0.182;entryY=0.091;entryDx=0;entryDy=0;entryPerimeter=0;" edge="1" parent="1" target="-vrsuvBG2RKhwMYN2WO8-1">
          <mxGeometry width="50" height="50" relative="1" as="geometry">
            <mxPoint x="190" y="280" as="sourcePoint" />
            <mxPoint x="450" y="330" as="targetPoint" />
          </mxGeometry>
        </mxCell>
        <mxCell id="-vrsuvBG2RKhwMYN2WO8-10" value="" style="endArrow=none;html=1;rounded=0;" edge="1" parent="1">
          <mxGeometry width="50" height="50" relative="1" as="geometry">
            <mxPoint x="770" y="350" as="sourcePoint" />
            <mxPoint x="770" y="280" as="targetPoint" />
          </mxGeometry>
        </mxCell>
        <mxCell id="-vrsuvBG2RKhwMYN2WO8-11" value="" style="endArrow=classic;html=1;rounded=0;entryX=0.824;entryY=0.086;entryDx=0;entryDy=0;entryPerimeter=0;" edge="1" parent="1" target="-vrsuvBG2RKhwMYN2WO8-1">
          <mxGeometry width="50" height="50" relative="1" as="geometry">
            <mxPoint x="770" y="280" as="sourcePoint" />
            <mxPoint x="450" y="330" as="targetPoint" />
          </mxGeometry>
        </mxCell>
        <mxCell id="-vrsuvBG2RKhwMYN2WO8-12" value="Account Verification" style="text;html=1;align=center;verticalAlign=middle;resizable=0;points=[];autosize=1;strokeColor=none;fillColor=none;" vertex="1" parent="1">
          <mxGeometry x="610" y="250" width="130" height="30" as="geometry" />
        </mxCell>
        <mxCell id="-vrsuvBG2RKhwMYN2WO8-13" value="" style="endArrow=classic;html=1;rounded=0;entryX=1;entryY=0.25;entryDx=0;entryDy=0;exitX=-0.017;exitY=0.466;exitDx=0;exitDy=0;exitPerimeter=0;" edge="1" parent="1" source="-vrsuvBG2RKhwMYN2WO8-1" target="-vrsuvBG2RKhwMYN2WO8-2">
          <mxGeometry width="50" height="50" relative="1" as="geometry">
            <mxPoint x="400" y="380" as="sourcePoint" />
            <mxPoint x="450" y="330" as="targetPoint" />
          </mxGeometry>
        </mxCell>
        <mxCell id="-vrsuvBG2RKhwMYN2WO8-14" value="Account Status" style="text;html=1;align=center;verticalAlign=middle;resizable=0;points=[];autosize=1;strokeColor=none;fillColor=none;" vertex="1" parent="1">
          <mxGeometry x="230" y="340" width="100" height="30" as="geometry" />
        </mxCell>
        <mxCell id="-vrsuvBG2RKhwMYN2WO8-16" value="" style="endArrow=classic;html=1;rounded=0;exitX=1.042;exitY=0.891;exitDx=0;exitDy=0;exitPerimeter=0;entryX=0.028;entryY=0.652;entryDx=0;entryDy=0;entryPerimeter=0;" edge="1" parent="1" source="-vrsuvBG2RKhwMYN2WO8-2" target="-vrsuvBG2RKhwMYN2WO8-1">
          <mxGeometry width="50" height="50" relative="1" as="geometry">
            <mxPoint x="400" y="380" as="sourcePoint" />
            <mxPoint x="450" y="330" as="targetPoint" />
          </mxGeometry>
        </mxCell>
        <mxCell id="-vrsuvBG2RKhwMYN2WO8-17" value="Fund Transfer" style="text;html=1;align=center;verticalAlign=middle;whiteSpace=wrap;rounded=0;" vertex="1" parent="1">
          <mxGeometry x="240" y="400" width="90" height="30" as="geometry" />
        </mxCell>
        <mxCell id="-vrsuvBG2RKhwMYN2WO8-18" value="" style="endArrow=classic;html=1;rounded=0;entryX=0;entryY=0.5;entryDx=0;entryDy=0;" edge="1" parent="1" target="-vrsuvBG2RKhwMYN2WO8-3">
          <mxGeometry width="50" height="50" relative="1" as="geometry">
            <mxPoint x="580" y="380" as="sourcePoint" />
            <mxPoint x="630" y="330" as="targetPoint" />
          </mxGeometry>
        </mxCell>
        <mxCell id="-vrsuvBG2RKhwMYN2WO8-19" value="Customer List" style="text;html=1;align=center;verticalAlign=middle;whiteSpace=wrap;rounded=0;" vertex="1" parent="1">
          <mxGeometry x="600" y="350" width="80" height="30" as="geometry" />
        </mxCell>
        <mxCell id="-vrsuvBG2RKhwMYN2WO8-20" value="" style="endArrow=none;html=1;rounded=0;" edge="1" parent="1">
          <mxGeometry width="50" height="50" relative="1" as="geometry">
            <mxPoint x="140" y="460" as="sourcePoint" />
            <mxPoint x="140" y="410" as="targetPoint" />
          </mxGeometry>
        </mxCell>
        <mxCell id="-vrsuvBG2RKhwMYN2WO8-21" value="" style="endArrow=classic;html=1;rounded=0;entryX=0.202;entryY=0.919;entryDx=0;entryDy=0;entryPerimeter=0;" edge="1" parent="1" target="-vrsuvBG2RKhwMYN2WO8-1">
          <mxGeometry width="50" height="50" relative="1" as="geometry">
            <mxPoint x="140" y="460" as="sourcePoint" />
            <mxPoint x="443.3800000000001" y="462.6400000000001" as="targetPoint" />
          </mxGeometry>
        </mxCell>
        <mxCell id="-vrsuvBG2RKhwMYN2WO8-22" value="" style="endArrow=none;html=1;rounded=0;" edge="1" parent="1">
          <mxGeometry width="50" height="50" relative="1" as="geometry">
            <mxPoint x="770" y="460" as="sourcePoint" />
            <mxPoint x="769.5" y="410" as="targetPoint" />
          </mxGeometry>
        </mxCell>
        <mxCell id="-vrsuvBG2RKhwMYN2WO8-23" value="" style="endArrow=classic;html=1;rounded=0;entryX=0.818;entryY=0.909;entryDx=0;entryDy=0;entryPerimeter=0;" edge="1" parent="1" target="-vrsuvBG2RKhwMYN2WO8-1">
          <mxGeometry width="50" height="50" relative="1" as="geometry">
            <mxPoint x="770" y="460" as="sourcePoint" />
            <mxPoint x="453" y="493" as="targetPoint" />
          </mxGeometry>
        </mxCell>
        <mxCell id="-vrsuvBG2RKhwMYN2WO8-24" value="Delete user account" style="text;html=1;align=center;verticalAlign=middle;whiteSpace=wrap;rounded=0;" vertex="1" parent="1">
          <mxGeometry x="590" y="460" width="110" height="30" as="geometry" />
        </mxCell>
        <mxCell id="-vrsuvBG2RKhwMYN2WO8-25" value="Request for Delete account" style="text;html=1;align=center;verticalAlign=middle;whiteSpace=wrap;rounded=0;" vertex="1" parent="1">
          <mxGeometry x="200" y="460" width="150" height="30" as="geometry" />
        </mxCell>
      </root>
    </mxGraphModel>
  </diagram>
</mxfile>
